<?xml version="1.0" encoding="iso-8859-1"?>
<!-- Uploaded to: SVG Repo, www.svgrepo.com, Generator: SVG Repo Mixer Tools -->
<svg height="800px" width="800px" version="1.1" id="Layer_1" xmlns="http://www.w3.org/2000/svg"
     viewBox="0 0 512 512" xml:space="preserve">
<path style="fill:#9ED368;" d="M0,256.006C0,397.402,114.606,512.004,255.996,512C397.394,512.004,512,397.402,512,256.006
	C512.009,114.61,397.394,0,255.996,0C114.606,0,0,114.614,0,256.006z"/>
    <path style="fill:#8BC052;" d="M512,256.005c0.001-9.062-0.485-18.011-1.404-26.831c-0.238-0.234-0.432-0.511-0.707-0.706
	c-0.414-0.583-112.521-112.688-113.1-113.1c-1.114-1.564-2.851-2.636-4.867-2.73c-156.606-7.143-216.825,46.701-239.869,93.132
	c-5.959,12.013-9.678,25.657-11.959,38.931c-0.5-0.3-1.05-0.531-1.637-0.688c-3.087-0.85-6.322,0.763-7.553,3.718
	c-22.518,54.086-8.046,114.897-6.425,121.275c-7.949,13.569-11.675,21.634-11.828,21.975c-1.264,2.81-0.238,5.961,2.166,7.705
	c0.402,0.579,0.898,1.06,1.488,1.487c0.402,0.58,108.046,108.208,108.636,108.637c0.387,0.556,0.871,1.014,1.429,1.429
	c9.727,1.121,19.599,1.759,29.627,1.759C397.394,512.004,512,397.401,512,256.005z"/>
    <path style="fill:#F4F6F9;" d="M397.92,117.858c-0.544-2.918-3.028-5.082-5.997-5.219c-156.606-7.143-216.825,46.7-239.869,93.132
	c-5.959,12.013-9.678,25.657-11.959,38.931c-0.5-0.3-1.05-0.531-1.637-0.688c-3.088-0.85-6.322,0.763-7.553,3.718
	c-22.519,54.086-8.046,114.896-6.425,121.275c-7.948,13.569-11.675,21.633-11.828,21.975c-1.446,3.219-0.01,7.006,3.216,8.457
	c0.85,0.381,1.741,0.562,2.619,0.562c2.441,0,4.772-1.406,5.841-3.775c0.151-0.339,3.9-8.417,11.892-21.975
	c74.859-1.987,120.884-12.345,157.811-35.474C422.476,258.315,398.182,119.252,397.92,117.858z M132.26,296.277
	c1.488,5.325,3.65,10.087,6.743,13.594c1.835,2.075,4.797,2.756,7.328,1.637c2.544-1.093,4.094-3.694,3.846-6.45
	c-0.053-0.562-4.866-56.9,13.344-93.6c20.543-41.397,74.019-89.12,211.315-86.547c-38.171,23.315-71.455,47.66-100.271,71.779
	c-0.287,0.227-0.59,0.416-0.836,0.693c-4.841,4.063-9.565,8.117-14.156,12.159c-0.658-11.867-0.516-32.11,5.777-50.685
	c1.134-3.35-0.662-6.981-4.01-8.118c-3.341-1.137-6.981,0.662-8.115,4.006c-9.541,28.174-6.465,58.598-5.584,65.53
	c-22.583,20.729-41.954,40.939-58.333,59.782c-0.962-19.644-1.327-61.677,11.361-81.394c1.913-2.969,1.056-6.931-1.919-8.844
	c-2.969-1.9-6.928-1.056-8.844,1.919c-19.187,29.812-12.915,97.225-12.638,100.081c0.064,0.662,0.291,1.261,0.538,1.844
	c-18.848,22.847-33.149,43.171-43.455,59.264C132.261,340.004,130.043,319.129,132.26,296.277z M287.235,327.927
	c-33.474,20.969-75.552,30.833-143.011,33.271c13.309-20.954,33.825-49.751,63.085-82.206c6.665,3.73,24.785,12.241,51.486,12.241
	c11.959,0,25.637-1.707,40.763-6.325c3.381-1.031,5.284-4.606,4.253-7.987c-1.028-3.381-4.625-5.307-7.99-4.25
	c-40.558,12.373-68.944,1.855-79.553-3.418c18.103-19.344,39.196-39.751,63.666-60.419c6.384,1.978,20.26,5.594,36.412,5.594
	c11.21,0,23.519-1.744,35.169-6.988c3.225-1.45,4.662-5.237,3.213-8.463c-1.45-3.231-5.25-4.656-8.463-3.213
	c-19.126,8.609-41.141,5.909-54.171,2.998c27.516-22.306,59.001-44.714,94.739-66.186
	C389.619,167.046,387.666,265.015,287.235,327.927z"/>
</svg>
